<svg xmlns="http://www.w3.org/2000/svg" viewBox="0 0 1059 1131.27"><defs><style>.cls-1{isolation:isolate;}.cls-2{fill:#deb645;}.cls-2,.cls-3{fill-rule:evenodd;}.cls-3{fill:#c73e12;}</style></defs><title>Primary_Logo</title><g id="Rectangle_1" data-name="Rectangle 1" class="cls-1"><g id="Rectangle_2" data-name="Rectangle 2"><path class="cls-2" d="M1278,722c-16.84-8.73,23.31-112-138-127-151-14-188.28,26-189,25C823.47,449.49,536.65,194.87,484,240c-7,6,65,96,65,96S374,222,366,260,487,376,487,376s-184-73-178-31,143,97,143,97-182-27-182,5,147,69,147,69-157,12-143,44,92,32,92,32-52,22-38,44,44,28,44,28-63.23,9.51,76,98c1.16.73-22.37,33.27,16,40,2.2.39-22.77,27.69,26,38,3.09.65-21.59,37.21,30,44,2.22.29-2.76,48.76,50,38,1.39-.28,4,45,42,34,1-.28-.32,40.34,54,23,2.13-.68,19.17,40.17,74,2,1.16-.81-264,335-216,385,0,0,119.32-201.31,384-266,147.48-36,229-252,253-292,14.55-24.25,20-57,66-57,2,0,102,37,102,37S1305,736,1278,722Z" transform="translate(-270 -234.73)"/></g><g id="Rectangle_1-2" data-name="Rectangle 1"><path class="cls-3" d="M1055,772c-4.87,108.94-27.89,205.66-47.64,271.89C1093,966,1143.07,837.89,1161,808c14.55-24.25,20-57,66-57,2,0,102,37,102,37s-24-52-51-66c-6.43-3.34-4.55-20.47-8.76-41.21C1227.09,663.63,1062.36,607.3,1055,772Z" transform="translate(-270 -234.73)"/></g></g></svg>
