<svg id="Calque_1" data-name="Calque 1" xmlns="http://www.w3.org/2000/svg" viewBox="0 0 70 70"><title>vote_pending</title><path style="fill:white" d="M28.13,0a16.57,16.57,0,0,1,4.47.6A16.93,16.93,0,0,1,44.4,12.41a16.57,16.57,0,0,1,.6,4.47,14.44,14.44,0,0,1-.64,4.45A15.79,15.79,0,0,1,42.66,25,19.79,19.79,0,0,1,40.25,28q-1.35,1.41-2.75,2.72t-2.75,2.62a20.59,20.59,0,0,0-2.4,2.77,13.72,13.72,0,0,0-1.7,3.16A10.67,10.67,0,0,0,30,43.13v5.63H26.25V43.13a14.42,14.42,0,0,1,.64-4.45A15.79,15.79,0,0,1,28.59,35,19.21,19.21,0,0,1,31,32q1.35-1.39,2.75-2.71t2.75-2.64a21.33,21.33,0,0,0,2.4-2.78,13.72,13.72,0,0,0,1.7-3.16,10.68,10.68,0,0,0,.64-3.81,12.67,12.67,0,0,0-1-5.11,13.23,13.23,0,0,0-7-7A13.08,13.08,0,0,0,23,4.79a13.23,13.23,0,0,0-7,7,12.66,12.66,0,0,0-1,5.11H11.25a16.55,16.55,0,0,1,.6-4.47A16.93,16.93,0,0,1,23.66.6,16.57,16.57,0,0,1,28.13,0ZM26.25,56.25H30V60H26.25Z"/></svg>